<svg xmlns="http://www.w3.org/2000/svg" style="display:none">
<!-- ai-archi asset library: core — the 8 category glyphs (also embedded in the template) -->
<symbol id="i-client" viewBox="0 0 24 24">
  <g fill="none" stroke="currentColor" stroke-width="1.7" stroke-linecap="round" stroke-linejoin="round">
    <rect x="3" y="4.5" width="18" height="14" rx="2"/><path d="M3 8.5h18M9 21h6"/><circle cx="6" cy="6.5" r=".4"/>
  </g>
</symbol>
<symbol id="i-gateway" viewBox="0 0 24 24">
  <g fill="none" stroke="currentColor" stroke-width="1.7" stroke-linecap="round" stroke-linejoin="round">
    <path d="M3 12h12M11 6l6 6-6 6M17.5 4v3M17.5 17v3M21 10.5v3"/>
  </g>
</symbol>
<symbol id="i-compute" viewBox="0 0 24 24">
  <g fill="none" stroke="currentColor" stroke-width="1.7" stroke-linecap="round" stroke-linejoin="round">
    <rect x="6.5" y="6.5" width="11" height="11" rx="2"/><rect x="10" y="10" width="4" height="4" rx="1"/>
    <path d="M9 3v3M15 3v3M9 18v3M15 18v3M3 9h3M3 15h3M18 9h3M18 15h3"/>
  </g>
</symbol>
<symbol id="i-storage" viewBox="0 0 24 24">
  <g fill="none" stroke="currentColor" stroke-width="1.7" stroke-linecap="round" stroke-linejoin="round">
    <ellipse cx="12" cy="5.5" rx="7.5" ry="2.8"/>
    <path d="M4.5 5.5v13c0 1.55 3.36 2.8 7.5 2.8s7.5-1.25 7.5-2.8v-13M4.5 12c0 1.55 3.36 2.8 7.5 2.8s7.5-1.25 7.5-2.8"/>
  </g>
</symbol>
<symbol id="i-queue" viewBox="0 0 24 24">
  <g fill="none" stroke="currentColor" stroke-width="1.7" stroke-linecap="round" stroke-linejoin="round">
    <path d="M4 7h13M7 12h13M4 17h13"/><path d="M19.5 5l2 2-2 2M17.5 15l2 2-2 2"/>
  </g>
</symbol>
<symbol id="i-security" viewBox="0 0 24 24">
  <g fill="none" stroke="currentColor" stroke-width="1.7" stroke-linecap="round" stroke-linejoin="round">
    <path d="M12 3l7 2.6v5.2c0 4.6-3 8.4-7 10.2-4-1.8-7-5.6-7-10.2V5.6z"/><path d="M9.3 12l2 2 3.6-3.8"/>
  </g>
</symbol>
<symbol id="i-external" viewBox="0 0 24 24">
  <g fill="none" stroke="currentColor" stroke-width="1.7" stroke-linecap="round" stroke-linejoin="round">
    <path d="M7 18a4.2 4.2 0 0 1-.5-8.4 5.6 5.6 0 0 1 10.9 1.2A3.7 3.7 0 0 1 17 18z"/>
  </g>
</symbol>
<symbol id="i-observe" viewBox="0 0 24 24">
  <g fill="none" stroke="currentColor" stroke-width="1.7" stroke-linecap="round" stroke-linejoin="round">
    <path d="M3 13h4l2.4-6 3.4 10 2.6-7 1.6 3H21"/>
  </g>
</symbol>
</svg>
