<svg xmlns="http://www.w3.org/2000/svg" style="display:none">
<!-- ai-archi asset library: tech — brand-neutral glyphs for specific technologies -->
<symbol id="i-kubernetes" viewBox="0 0 24 24">
  <g fill="none" stroke="currentColor" stroke-width="1.7" stroke-linecap="round" stroke-linejoin="round">
    <path d="M12 3l7.8 3.75v7.5L12 21l-7.8-3.75v-7.5z"/><circle cx="12" cy="12" r="3.2"/>
    <path d="M12 6.5v2.3M7 9.5l2.2 1.2M7 15.5l2.2-1.2M12 17.5v-2.3M17 15.5l-2.2-1.2M17 9.5l-2.2 1.2"/>
  </g>
</symbol>
<symbol id="i-container" viewBox="0 0 24 24">
  <g fill="none" stroke="currentColor" stroke-width="1.7" stroke-linecap="round" stroke-linejoin="round">
    <rect x="3" y="10" width="5" height="4" rx=".8"/><rect x="9.5" y="10" width="5" height="4" rx=".8"/>
    <rect x="16" y="10" width="5" height="4" rx=".8"/><rect x="9.5" y="4.5" width="5" height="4" rx=".8"/>
    <path d="M3 17.5h18"/>
  </g>
</symbol>
<symbol id="i-function" viewBox="0 0 24 24">
  <g fill="none" stroke="currentColor" stroke-width="1.7" stroke-linecap="round" stroke-linejoin="round">
    <path d="M13 3L5 13.5h5L9.5 21l8-10.5h-5z"/>
  </g>
</symbol>
<symbol id="i-gpu" viewBox="0 0 24 24">
  <g fill="none" stroke="currentColor" stroke-width="1.7" stroke-linecap="round" stroke-linejoin="round">
    <rect x="3" y="6" width="18" height="11" rx="2"/><circle cx="9" cy="11.5" r="3"/>
    <circle cx="16.5" cy="11.5" r="1.8"/><path d="M6 20h12"/>
  </g>
</symbol>
<symbol id="i-vector-db" viewBox="0 0 24 24">
  <g fill="none" stroke="currentColor" stroke-width="1.7" stroke-linecap="round" stroke-linejoin="round">
    <ellipse cx="12" cy="5.5" rx="7.5" ry="2.8"/>
    <path d="M4.5 5.5v13c0 1.55 3.36 2.8 7.5 2.8s7.5-1.25 7.5-2.8v-13"/>
    <path d="M8.8 13.5l3.2 2.6 3.2-4.6"/><circle cx="8.8" cy="13.5" r=".5"/><circle cx="12" cy="16.1" r=".5"/><circle cx="15.2" cy="11.5" r=".5"/>
  </g>
</symbol>
<symbol id="i-cache" viewBox="0 0 24 24">
  <g fill="none" stroke="currentColor" stroke-width="1.7" stroke-linecap="round" stroke-linejoin="round">
    <ellipse cx="12" cy="5.5" rx="7.5" ry="2.8"/>
    <path d="M4.5 5.5v13c0 1.55 3.36 2.8 7.5 2.8s7.5-1.25 7.5-2.8v-13"/>
    <path d="M13 9.5l-2.8 4.2h2.6L11.3 18l4.3-5.6h-2.6z"/>
  </g>
</symbol>
<symbol id="i-warehouse" viewBox="0 0 24 24">
  <g fill="none" stroke="currentColor" stroke-width="1.7" stroke-linecap="round" stroke-linejoin="round">
    <path d="M3 20V9l9-5 9 5v11"/><path d="M7 20v-6h10v6M3 20h18"/>
  </g>
</symbol>
<symbol id="i-search" viewBox="0 0 24 24">
  <g fill="none" stroke="currentColor" stroke-width="1.7" stroke-linecap="round" stroke-linejoin="round">
    <circle cx="10.5" cy="10.5" r="6"/><path d="M15 15l5.5 5.5"/>
  </g>
</symbol>
<symbol id="i-ml-model" viewBox="0 0 24 24">
  <g fill="none" stroke="currentColor" stroke-width="1.7" stroke-linecap="round" stroke-linejoin="round">
    <circle cx="5" cy="12" r="1.8"/><circle cx="12" cy="6" r="1.8"/><circle cx="12" cy="18" r="1.8"/><circle cx="19" cy="12" r="1.8"/>
    <path d="M6.6 11l3.8-3.6M6.6 13l3.8 3.6M13.6 6.9l3.9 3.7M13.6 17.1l3.9-3.7"/>
  </g>
</symbol>
<symbol id="i-llm" viewBox="0 0 24 24">
  <g fill="none" stroke="currentColor" stroke-width="1.7" stroke-linecap="round" stroke-linejoin="round">
    <path d="M11 3l1.7 4.8L17.5 9.5l-4.8 1.7L11 16l-1.7-4.8L4.5 9.5l4.8-1.7z"/>
    <path d="M18 14.5l.9 2.6 2.6.9-2.6.9-.9 2.6-.9-2.6-2.6-.9 2.6-.9z"/>
  </g>
</symbol>
<symbol id="i-mobile" viewBox="0 0 24 24">
  <g fill="none" stroke="currentColor" stroke-width="1.7" stroke-linecap="round" stroke-linejoin="round">
    <rect x="7" y="3" width="10" height="18" rx="2.5"/><path d="M11 17.5h2"/>
  </g>
</symbol>
<symbol id="i-terminal" viewBox="0 0 24 24">
  <g fill="none" stroke="currentColor" stroke-width="1.7" stroke-linecap="round" stroke-linejoin="round">
    <rect x="3" y="4.5" width="18" height="15" rx="2"/><path d="M7 9.5l3.5 2.8L7 15M12.5 15.5H17"/>
  </g>
</symbol>
<symbol id="i-git" viewBox="0 0 24 24">
  <g fill="none" stroke="currentColor" stroke-width="1.7" stroke-linecap="round" stroke-linejoin="round">
    <circle cx="7" cy="5.5" r="2.2"/><circle cx="7" cy="18.5" r="2.2"/><circle cx="17.5" cy="8" r="2.2"/>
    <path d="M7 7.7v8.6M15.9 9.6c-2.6 2.6-6.4 1.6-8.2 4.6"/>
  </g>
</symbol>
<symbol id="i-pipeline" viewBox="0 0 24 24">
  <g fill="none" stroke="currentColor" stroke-width="1.7" stroke-linecap="round" stroke-linejoin="round">
    <rect x="3" y="9" width="5" height="6" rx="1.5"/><rect x="16" y="9" width="5" height="6" rx="1.5"/>
    <path d="M8 12h7.5"/><path d="M13.4 10.2l1.8 1.8-1.8 1.8"/>
  </g>
</symbol>
<symbol id="i-registry" viewBox="0 0 24 24">
  <g fill="none" stroke="currentColor" stroke-width="1.7" stroke-linecap="round" stroke-linejoin="round">
    <path d="M12 3l8 4.5v9L12 21l-8-4.5v-9z"/><path d="M12 12l8-4.5M12 12v9M12 12L4 7.5"/>
  </g>
</symbol>
<symbol id="i-cdn" viewBox="0 0 24 24">
  <g fill="none" stroke="currentColor" stroke-width="1.7" stroke-linecap="round" stroke-linejoin="round">
    <circle cx="12" cy="12" r="8.5"/><path d="M3.5 12h17M12 3.5c-5.5 5.5-5.5 11.5 0 17 5.5-5.5 5.5-11.5 0-17z"/>
  </g>
</symbol>
<symbol id="i-lb" viewBox="0 0 24 24">
  <g fill="none" stroke="currentColor" stroke-width="1.7" stroke-linecap="round" stroke-linejoin="round">
    <rect x="9" y="3" width="6" height="5" rx="1.5"/><path d="M12 8v3M12 11l-6.8 2.5V16M12 11v5M12 11l6.8 2.5V16"/>
    <rect x="3" y="16" width="4.5" height="4.5" rx="1.2"/><rect x="9.75" y="16" width="4.5" height="4.5" rx="1.2"/><rect x="16.5" y="16" width="4.5" height="4.5" rx="1.2"/>
  </g>
</symbol>
<symbol id="i-key" viewBox="0 0 24 24">
  <g fill="none" stroke="currentColor" stroke-width="1.7" stroke-linecap="round" stroke-linejoin="round">
    <circle cx="8" cy="8" r="4.5"/><path d="M11.2 11.2L20 20M16.5 16.5L19 14M14.2 18.8l2-2"/>
  </g>
</symbol>
<symbol id="i-user" viewBox="0 0 24 24">
  <g fill="none" stroke="currentColor" stroke-width="1.7" stroke-linecap="round" stroke-linejoin="round">
    <circle cx="12" cy="8" r="4"/><path d="M4.5 20c1.5-4 4-5.5 7.5-5.5s6 1.5 7.5 5.5"/>
  </g>
</symbol>
<symbol id="i-team" viewBox="0 0 24 24">
  <g fill="none" stroke="currentColor" stroke-width="1.7" stroke-linecap="round" stroke-linejoin="round">
    <circle cx="9" cy="8.5" r="3.4"/><path d="M3 19.5c1.2-3.4 3.2-4.7 6-4.7s4.8 1.3 6 4.7"/>
    <circle cx="17" cy="9.5" r="2.6"/><path d="M16.6 14.9c2.3.2 3.8 1.4 4.6 3.9"/>
  </g>
</symbol>
<symbol id="i-email" viewBox="0 0 24 24">
  <g fill="none" stroke="currentColor" stroke-width="1.7" stroke-linecap="round" stroke-linejoin="round">
    <rect x="3" y="5.5" width="18" height="13" rx="2"/><path d="M3.5 7l8.5 6 8.5-6"/>
  </g>
</symbol>
<symbol id="i-payment" viewBox="0 0 24 24">
  <g fill="none" stroke="currentColor" stroke-width="1.7" stroke-linecap="round" stroke-linejoin="round">
    <rect x="3" y="5.5" width="18" height="13" rx="2"/><path d="M3 10h18M6.5 14.5h4"/>
  </g>
</symbol>
<symbol id="i-plug" viewBox="0 0 24 24">
  <g fill="none" stroke="currentColor" stroke-width="1.7" stroke-linecap="round" stroke-linejoin="round">
    <path d="M9 7V3M15 7V3M7 7h10v3a5 5 0 0 1-10 0zM12 15v6"/>
  </g>
</symbol>
<symbol id="i-scheduler" viewBox="0 0 24 24">
  <g fill="none" stroke="currentColor" stroke-width="1.7" stroke-linecap="round" stroke-linejoin="round">
    <circle cx="12" cy="12" r="8.5"/><path d="M12 6.5V12l3.5 2.5"/>
  </g>
</symbol>
<symbol id="i-file" viewBox="0 0 24 24">
  <g fill="none" stroke="currentColor" stroke-width="1.7" stroke-linecap="round" stroke-linejoin="round">
    <path d="M6.5 3h8l4 4v14h-12z"/><path d="M14 3v4.5h4.5"/><path d="M9.5 13h5M9.5 16.5h5"/>
  </g>
</symbol>
<symbol id="i-analytics" viewBox="0 0 24 24">
  <g fill="none" stroke="currentColor" stroke-width="1.7" stroke-linecap="round" stroke-linejoin="round">
    <path d="M3.5 20.5h17"/><path d="M6 17v-5M11 17V6.5M16 17v-8"/>
  </g>
</symbol>
<symbol id="i-notification" viewBox="0 0 24 24">
  <g fill="none" stroke="currentColor" stroke-width="1.7" stroke-linecap="round" stroke-linejoin="round">
    <path d="M12 4a5.5 5.5 0 0 1 5.5 5.5c0 3 .8 4.6 1.8 5.8H4.7c1-1.2 1.8-2.8 1.8-5.8A5.5 5.5 0 0 1 12 4z"/>
    <path d="M9.8 18.8a2.3 2.3 0 0 0 4.4 0"/>
  </g>
</symbol>
<symbol id="i-config" viewBox="0 0 24 24">
  <g fill="none" stroke="currentColor" stroke-width="1.7" stroke-linecap="round" stroke-linejoin="round">
    <circle cx="12" cy="12" r="3.2"/>
    <path d="M12 3.5v3M12 17.5v3M3.5 12h3M17.5 12h3M6 6l2.1 2.1M15.9 15.9L18 18M18 6l-2.1 2.1M8.1 15.9L6 18"/>
  </g>
</symbol>
<symbol id="i-robot" viewBox="0 0 24 24">
  <g fill="none" stroke="currentColor" stroke-width="1.7" stroke-linecap="round" stroke-linejoin="round">
    <rect x="5" y="8" width="14" height="10" rx="3"/><path d="M12 8V4.8M5 13H3M21 13h-2"/>
    <circle cx="12" cy="3.8" r="1"/><circle cx="9.5" cy="12.5" r="1"/><circle cx="14.5" cy="12.5" r="1"/>
  </g>
</symbol>
</svg>
